<svg width="146" height="61" viewBox="0 0 146 61" fill="none" xmlns="http://www.w3.org/2000/svg">
<rect y="10.6885" width="142" height="50" rx="25" transform="rotate(-4.31682 0 10.6885)" fill="#E76295"/>
<path d="M30.0764 39.8912L29.9116 37.7074C29.9502 37.5106 30.0971 37.2421 30.3522 36.9019C30.6135 36.5546 30.9323 36.1729 31.3087 35.7567C31.6918 35.34 32.0912 34.9187 32.507 34.4929C32.9228 34.0671 33.3109 33.6734 33.6714 33.3119C34.1061 32.8713 34.5296 32.4148 34.9419 31.9424C35.3542 31.47 35.6883 30.9801 35.9442 30.4728C36.2 29.9654 36.3074 29.4392 36.2662 28.8941C36.2115 28.1694 35.9958 27.6141 35.619 27.228C35.2417 26.8353 34.6974 26.6658 33.9861 26.7195C33.1152 26.7853 32.5311 27.1068 32.2337 27.6842C31.9358 28.2549 31.8203 28.9823 31.887 29.8664L29.2445 30.0659C29.1281 28.5236 29.4605 27.2584 30.2416 26.2701C31.0228 25.2818 32.2277 24.7262 33.8564 24.6033C34.9001 24.5245 35.7858 24.6549 36.5134 24.9944C37.2405 25.3273 37.8025 25.8197 38.1994 26.4717C38.6024 27.1165 38.836 27.8644 38.9002 28.7153C38.9585 29.4864 38.8258 30.2085 38.5022 30.8814C38.1852 31.5538 37.784 32.1724 37.2984 32.7373C36.8124 33.2954 36.3451 33.792 35.8966 34.227C35.0738 35.0178 34.3935 35.7043 33.8558 36.2865C33.3176 36.8619 33.0125 37.2928 32.9405 37.579L39.5118 37.083L39.6691 39.1671L30.0764 39.8912ZM45.6405 38.9369C44.743 39.0047 43.9668 38.8627 43.3118 38.511C42.6568 38.1593 42.1069 37.6493 41.662 36.9808C41.2237 36.3119 40.8807 35.5322 40.633 34.6417C40.3847 33.7445 40.2222 32.7873 40.1454 31.7702C40.0687 30.7531 40.0857 29.7824 40.1964 28.8581C40.3066 27.9272 40.5279 27.0948 40.8603 26.3611C41.1993 25.6268 41.666 25.0333 42.2603 24.5806C42.8546 24.128 43.6004 23.8677 44.4979 23.8C45.3887 23.7328 46.1618 23.8783 46.8173 24.2366C47.4728 24.595 48.0233 25.1117 48.4687 25.7867C48.9141 26.4618 49.2612 27.2512 49.5099 28.1551C49.7581 29.0523 49.9206 30.0094 49.9974 31.0265C50.0742 32.0436 50.0572 33.0143 49.9465 33.9386C49.8352 34.8563 49.6098 35.6789 49.2703 36.4065C48.9308 37.1341 48.4636 37.721 47.8689 38.167C47.2741 38.613 46.5313 38.8697 45.6405 38.9369ZM45.4824 36.8429C46.2336 36.7862 46.7661 36.3114 47.0797 35.4186C47.3996 34.5187 47.488 33.1214 47.345 31.2268C47.202 29.3321 46.9048 27.964 46.4535 27.1222C46.0088 26.28 45.4109 25.8872 44.6597 25.9439C43.9085 26.0006 43.373 26.4789 43.0532 27.3789C42.7333 28.2789 42.6449 29.6761 42.7879 31.5707C42.9309 33.4654 43.2281 34.8335 43.6794 35.6753C44.1302 36.5104 44.7312 36.8996 45.4824 36.8429ZM55.827 23.1253L56.9395 37.8634L54.327 38.0606L53.4064 25.8653C53.3383 25.9373 53.1689 26.0403 52.8982 26.1744C52.6271 26.3019 52.2958 26.4305 51.9045 26.5603C51.5198 26.6896 51.116 26.787 50.693 26.8523L50.5319 24.7184C50.9534 24.6331 51.3552 24.5092 51.7374 24.3466C52.1262 24.1836 52.4575 24.0115 52.7313 23.8303C53.0046 23.6426 53.1856 23.4718 53.2743 23.318L55.827 23.1253ZM63.9652 37.5537C62.8551 37.6375 61.9266 37.4268 61.1797 36.9215C60.4324 36.4097 59.8506 35.6547 59.4343 34.6565C59.018 33.6583 58.7574 32.4646 58.6525 31.0752C58.4407 28.2698 58.7222 26.1526 59.4968 24.7236C60.2781 23.2941 61.4365 22.5214 62.9722 22.4054C63.8098 22.3422 64.5089 22.4365 65.0694 22.6884C65.6361 22.9331 66.0854 23.2602 66.4171 23.6697C66.7489 24.0793 66.9917 24.5055 67.1454 24.9485C67.2992 25.3915 67.3887 25.7793 67.4138 26.1116L67.4183 26.1715L64.9752 26.3559L64.9707 26.2961C64.9511 26.0368 64.8835 25.7611 64.7679 25.469C64.6589 25.1763 64.4736 24.9363 64.2121 24.7488C63.9501 24.5546 63.5864 24.4751 63.121 24.5102C62.4762 24.5589 61.9814 24.9573 61.6368 25.7053C61.2916 26.4467 61.1306 27.6356 61.1539 29.2718C61.4402 28.9025 61.8216 28.5963 62.298 28.3531C62.7738 28.1032 63.3275 27.9544 63.9591 27.9068C64.8499 27.8395 65.6133 27.9892 66.2494 28.3557C66.8849 28.7155 67.3817 29.2296 67.7397 29.8978C68.1043 30.5656 68.3187 31.325 68.383 32.1759C68.4562 33.1465 68.3387 34.0245 68.0302 34.8099C67.728 35.5882 67.2375 36.2203 66.5588 36.706C65.8801 37.1918 65.0156 37.4744 63.9652 37.5537ZM63.8271 35.4581C64.5318 35.4049 65.0458 35.1288 65.3691 34.6297C65.692 34.124 65.82 33.429 65.7533 32.5449C65.6901 31.7073 65.4632 31.0491 65.0727 30.5705C64.6889 30.0914 64.1779 29.8759 63.5397 29.9241C62.8882 29.9732 62.3704 30.243 61.9862 30.7333C61.602 31.2236 61.4406 31.8743 61.5018 32.6853C61.5655 33.5296 61.8079 34.2166 62.229 34.7464C62.6562 35.2691 63.1889 35.5063 63.8271 35.4581ZM69.3248 32.0647L69.2021 30.4393L76.3517 29.8996L76.4744 31.525L69.3248 32.0647ZM78.0026 36.2734L77.8377 34.0896C77.8764 33.8928 78.0232 33.6244 78.2784 33.2842C78.5396 32.9369 78.8585 32.5551 79.2349 32.1389C79.6179 31.7223 80.0174 31.301 80.4332 30.8752C80.8489 30.4493 81.2371 30.0557 81.5976 29.6942C82.0323 29.2535 82.4558 28.797 82.8681 28.3246C83.2804 27.8523 83.6144 27.3624 83.8703 26.855C84.1262 26.3477 84.2335 25.8214 84.1924 25.2763C84.1377 24.5517 83.9219 23.9964 83.5451 23.6103C83.1678 23.2176 82.6235 23.0481 81.9122 23.1018C81.0414 23.1675 80.4573 23.4891 80.1599 24.0664C79.862 24.6371 79.7464 25.3646 79.8132 26.2487L77.1707 26.4482C77.0542 24.9059 77.3866 23.6406 78.1678 22.6524C78.9489 21.6641 80.1539 21.1085 81.7826 20.9855C82.8263 20.9067 83.7119 21.0371 84.4395 21.3766C85.1667 21.7095 85.7287 22.202 86.1255 22.8539C86.5285 23.4988 86.7622 24.2466 86.8264 25.0975C86.8846 25.8687 86.7519 26.5907 86.4283 27.2637C86.1114 27.9361 85.7101 28.5547 85.2246 29.1195C84.7386 29.6777 84.2713 30.1743 83.8228 30.6093C82.9999 31.4001 82.3197 32.0866 81.782 32.6687C81.2438 33.2442 80.9387 33.6751 80.8667 33.9613L87.438 33.4652L87.5953 35.5493L78.0026 36.2734ZM93.5666 35.3192C92.6692 35.3869 91.893 35.245 91.238 34.8933C90.583 34.5416 90.033 34.0315 89.5881 33.3631C89.1499 32.6942 88.8069 31.9145 88.5591 31.0239C88.3109 30.1267 88.1484 29.1696 88.0716 28.1525C87.9948 27.1354 88.0118 26.1647 88.1225 25.2404C88.2328 24.3094 88.4541 23.4771 88.7865 22.7433C89.1255 22.0091 89.5921 21.4156 90.1864 20.9629C90.7807 20.5102 91.5266 20.25 92.424 20.1823C93.3148 20.115 94.088 20.2606 94.7435 20.6189C95.399 20.9773 95.9494 21.4939 96.3948 22.169C96.8402 22.8441 97.1873 23.6335 97.436 24.5373C97.6843 25.4345 97.8468 26.3917 97.9236 27.4088C98.0003 28.4259 97.9834 29.3966 97.8726 30.3209C97.7614 31.2385 97.536 32.0612 97.1965 32.7888C96.8569 33.5164 96.3898 34.1032 95.795 34.5493C95.2002 34.9953 94.4574 35.252 93.5666 35.3192ZM93.4086 33.2252C94.1598 33.1684 94.6922 32.6937 95.0059 31.8009C95.3257 30.9009 95.4141 29.5036 95.2711 27.609C95.1281 25.7144 94.8309 24.3462 94.3796 23.5045C93.935 22.6622 93.337 22.2695 92.5858 22.3262C91.8347 22.3829 91.2991 22.8612 90.9793 23.7612C90.6595 24.6611 90.5711 26.0584 90.7141 27.953C90.8571 29.8476 91.1543 31.2158 91.6056 32.0576C92.0564 32.8927 92.6574 33.2819 93.4086 33.2252ZM103.753 19.5076L104.866 34.2457L102.253 34.4429L101.333 22.2476C101.264 22.3196 101.095 22.4226 100.824 22.5567C100.553 22.6841 100.222 22.8128 99.8306 22.9426C99.4459 23.0719 99.0421 23.1692 98.6192 23.2346L98.4581 21.1007C98.8795 21.0154 99.2813 20.8914 99.6635 20.7289C100.052 20.5658 100.384 20.3937 100.657 20.2126C100.931 20.0248 101.112 19.8541 101.2 19.7003L103.753 19.5076ZM112.21 33.9119C111.127 33.9936 110.192 33.8737 109.405 33.552C108.625 33.2231 108.014 32.7444 107.572 32.1159C107.13 31.4807 106.877 30.7443 106.814 29.9067C106.757 29.1555 106.849 28.5201 107.091 28.0004C107.339 27.4736 107.658 27.0551 108.049 26.7447C108.447 26.4339 108.842 26.2202 109.234 26.1037C108.89 26.0562 108.528 25.9163 108.15 25.6842C107.771 25.452 107.438 25.1128 107.15 24.6665C106.869 24.2131 106.701 23.6307 106.647 22.9194C106.59 22.1616 106.743 21.4848 107.106 20.8891C107.475 20.2863 108.003 19.8018 108.691 19.4357C109.378 19.0629 110.17 18.8427 111.068 18.7749C111.965 18.7072 112.778 18.8062 113.507 19.0721C114.242 19.3309 114.834 19.7308 115.282 20.2719C115.737 20.8059 115.993 21.4518 116.051 22.2096C116.104 22.9209 116.026 23.5218 115.816 24.0124C115.605 24.4963 115.326 24.8817 114.98 25.1686C114.641 25.4549 114.308 25.6472 113.981 25.7454C114.386 25.8017 114.805 25.9539 115.239 26.202C115.672 26.4501 116.047 26.8163 116.365 27.3004C116.688 27.7774 116.878 28.3915 116.935 29.1427C116.998 29.9803 116.859 30.7463 116.517 31.4407C116.181 32.1279 115.648 32.6929 114.92 33.1357C114.197 33.5713 113.294 33.8301 112.21 33.9119ZM111.532 24.9274C112.177 24.8787 112.681 24.6501 113.045 24.2416C113.415 23.8326 113.577 23.3156 113.53 22.6907C113.478 22.006 113.228 21.5235 112.778 21.2432C112.329 20.9628 111.812 20.8447 111.227 20.8889C110.642 20.9331 110.146 21.1277 109.737 21.4727C109.335 21.8173 109.16 22.3319 109.212 23.0167C109.259 23.6415 109.493 24.1286 109.914 24.478C110.341 24.8268 110.881 24.9766 111.532 24.9274ZM112.052 31.8178C112.717 31.7676 113.26 31.5227 113.682 31.0831C114.11 30.6429 114.294 30.0307 114.235 29.2462C114.179 28.5083 113.915 27.9299 113.442 27.511C112.975 27.0849 112.39 26.8985 111.685 26.9517C110.974 27.0053 110.419 27.2778 110.022 27.7692C109.624 28.2605 109.453 28.8718 109.508 29.603C109.568 30.3874 109.839 30.9654 110.321 31.3367C110.811 31.7076 111.388 31.868 112.052 31.8178Z" fill="black" fill-opacity="0.49"/>
</svg>
