<svg width="90" height="90" viewBox="0 0 90 90" fill="none" xmlns="http://www.w3.org/2000/svg">
<path d="M37.5972 5.06966C40.3105 -1.55324 49.6895 -1.55326 52.4028 5.06965L60.586 25.044C61.3985 27.0272 62.9728 28.6015 64.956 29.414L84.9303 37.5972C91.5532 40.3105 91.5533 49.6895 84.9304 52.4028L64.956 60.586C62.9728 61.3985 61.3985 62.9728 60.586 64.956L52.4028 84.9303C49.6895 91.5532 40.3105 91.5533 37.5972 84.9304L29.414 64.956C28.6015 62.9728 27.0272 61.3985 25.044 60.586L5.06966 52.4028C-1.55324 49.6895 -1.55326 40.3105 5.06965 37.5972L25.044 29.414C27.0272 28.6015 28.6015 27.0272 29.414 25.044L37.5972 5.06966Z" fill="#D0F482"/>
</svg>
