<svg width="43" height="43" viewBox="0 0 43 43" fill="none" xmlns="http://www.w3.org/2000/svg">
<path d="M17.7986 3.03483C19.1552 -0.276625 23.8448 -0.276627 25.2014 3.03483L28.8571 11.9579C29.2633 12.9495 30.0505 13.7367 31.0421 14.1429L39.9652 17.7986C43.2766 19.1552 43.2766 23.8448 39.9652 25.2014L31.0421 28.8571C30.0505 29.2633 29.2633 30.0505 28.8571 31.0421L25.2014 39.9652C23.8448 43.2766 19.1552 43.2766 17.7986 39.9652L14.1429 31.0421C13.7367 30.0505 12.9495 29.2633 11.9579 28.8571L3.03483 25.2014C-0.276625 23.8448 -0.276627 19.1552 3.03483 17.7986L11.9579 14.1429C12.9495 13.7367 13.7367 12.9495 14.1429 11.9579L17.7986 3.03483Z" fill="#FF7A30"/>
</svg>
