<svg width="146" height="61" viewBox="0 0 146 61" fill="none" xmlns="http://www.w3.org/2000/svg">
<rect y="10.6886" width="142" height="50" rx="25" transform="rotate(-4.31682 0 10.6886)" fill="#FFDE6A"/>
<path d="M38.3153 40.9546C36.7464 41.0731 35.4585 40.7959 34.4517 40.1231C33.451 39.4432 32.8942 38.3553 32.7813 36.8596L32.7354 36.2513L35.3579 36.0533L35.4001 36.6117C35.52 38.2006 36.4409 38.93 38.1626 38.8C39.0202 38.7353 39.6642 38.5429 40.0947 38.2229C40.5318 37.9025 40.7265 37.4265 40.6789 36.7949C40.6442 36.3362 40.4587 35.9591 40.1221 35.6636C39.7917 35.361 39.3483 35.1103 38.7917 34.9116C38.2347 34.7063 37.6056 34.5198 36.9043 34.3521C36.1156 34.1776 35.3878 33.925 34.721 33.5943C34.0604 33.2564 33.5188 32.8126 33.0962 32.2628C32.6803 31.7126 32.4404 31.0153 32.3767 30.171C32.313 29.3268 32.4748 28.5925 32.8623 27.9682C33.2564 27.3435 33.8208 26.8496 34.5556 26.4866C35.2898 26.1169 36.1456 25.8952 37.1228 25.8215C38.1399 25.7447 39.0461 25.8367 39.8413 26.0976C40.6432 26.358 41.2873 26.7874 41.7737 27.3858C42.2601 27.9842 42.539 28.7554 42.6102 29.6994L42.6592 30.3476L40.0267 30.5463L39.9868 30.0178C39.8749 28.5353 38.9879 27.8568 37.326 27.9823C36.515 28.0435 35.8978 28.2372 35.4745 28.5633C35.0573 28.8823 34.8721 29.3509 34.9187 29.9691C34.9539 30.4345 35.1328 30.8121 35.4555 31.1019C35.7783 31.3918 36.2077 31.6335 36.7438 31.827C37.2865 32.0201 37.8988 32.2045 38.5806 32.3803C39.4802 32.6066 40.2665 32.8815 40.9394 33.2051C41.6185 33.5216 42.155 33.9424 42.549 34.4676C42.9425 34.9861 43.1711 35.6675 43.2348 36.5117C43.3326 37.808 42.9295 38.8447 42.0254 39.6216C41.1275 40.3914 39.8908 40.8357 38.3153 40.9546ZM54.9151 36.1214C54.8999 36.7176 54.6969 37.3045 54.3059 37.8823C53.9216 38.4595 53.3472 38.9541 52.5827 39.3662C51.8244 39.7711 50.8835 40.0159 49.76 40.1007C48.6232 40.1866 47.6118 40.0289 46.7258 39.6278C45.8398 39.2267 45.1263 38.632 44.5855 37.8438C44.0507 37.0485 43.7427 36.1124 43.6614 35.0354C43.5786 33.9385 43.7454 32.9599 44.1619 32.0994C44.5849 31.2385 45.2046 30.5465 46.0209 30.0236C46.8433 29.4935 47.8129 29.1863 48.9298 29.102C50.0732 29.0157 51.0779 29.1739 51.944 29.5765C52.8168 29.9786 53.5105 30.5781 54.0253 31.3749C54.5401 32.1718 54.8386 33.1153 54.9209 34.2056C54.947 34.5512 54.9538 34.8182 54.9412 35.0063L46.3756 35.6529C46.5703 36.4605 46.9509 37.0736 47.5173 37.4922C48.0832 37.9041 48.8083 38.0766 49.6924 38.0099C50.6231 37.9396 51.2858 37.7292 51.6806 37.3785C52.0814 37.0206 52.2887 36.6673 52.3025 36.3186L54.9151 36.1214ZM49.1147 31.1539C48.317 31.2142 47.668 31.4737 47.1678 31.9327C46.6676 32.3916 46.3666 33.0094 46.2648 33.7859L52.1281 33.3433C52.0267 32.7092 51.7253 32.1703 51.2238 31.7268C50.7219 31.2766 50.0188 31.0857 49.1147 31.1539ZM57.8381 23.5858L59.0146 39.1715L56.432 39.3665L55.2555 23.7808L57.8381 23.5858ZM70.8876 34.9157C70.8725 35.5119 70.6694 36.0988 70.2784 36.6766C69.8941 37.2538 69.3197 37.7485 68.5553 38.1605C67.7969 38.5654 66.856 38.8102 65.7325 38.8951C64.5958 38.9809 63.5844 38.8232 62.6983 38.4221C61.8123 38.021 61.0988 37.4263 60.558 36.6381C60.0233 35.8428 59.7153 34.9067 59.634 33.8297C59.5512 32.7329 59.718 31.7542 60.1344 30.8937C60.5574 30.0328 61.1771 29.3408 61.9934 28.8179C62.8158 28.2878 63.7855 27.9806 64.9023 27.8963C66.0457 27.81 67.0505 27.9682 67.9166 28.3708C68.7893 28.7729 69.4831 29.3724 69.9978 30.1692C70.5126 30.9661 70.8111 31.9096 70.8934 32.9999C70.9195 33.3455 70.9263 33.6125 70.9138 33.8006L62.3481 34.4472C62.5428 35.2548 62.9234 35.8679 63.4898 36.2865C64.0558 36.6984 64.7808 36.8709 65.665 36.8042C66.5957 36.734 67.2584 36.5235 67.6531 36.1728C68.0539 35.8149 68.2613 35.4616 68.2751 35.1129L70.8876 34.9157ZM65.0873 29.9482C64.2895 30.0085 63.6406 30.268 63.1404 30.727C62.6402 31.1859 62.3391 31.8037 62.2373 32.5802L68.1006 32.1376C67.9993 31.5035 67.6978 30.9646 67.1964 30.5211C66.6944 30.071 65.9914 29.88 65.0873 29.9482ZM77.5066 37.9963C76.3831 38.0811 75.3753 37.9265 74.4831 37.5325C73.5975 37.1381 72.8808 36.5437 72.3328 35.7493C71.7848 34.955 71.4686 33.9994 71.3843 32.8826C71.3005 31.7724 71.4704 30.7902 71.8939 29.9359C72.3175 29.0816 72.9382 28.4029 73.756 27.8999C74.5799 27.3898 75.5536 27.0923 76.6771 27.0075C77.508 26.9448 78.2552 27.0121 78.9186 27.2094C79.5887 27.4062 80.162 27.6938 80.6385 28.0724C81.1145 28.4442 81.4841 28.8676 81.7472 29.3425C82.017 29.8169 82.17 30.2934 82.2061 30.772L82.2121 30.8518L79.6095 31.0482C79.6065 31.0084 79.6005 30.972 79.5913 30.9393C79.5816 30.8999 79.572 30.8605 79.5623 30.8212C79.4378 30.3225 79.1426 29.9102 78.6767 29.5843C78.2109 29.2585 77.589 29.1249 76.8113 29.1836C75.9736 29.2468 75.2832 29.5764 74.7398 30.1723C74.2026 30.7611 73.9749 31.5973 74.0567 32.6809C74.138 33.7578 74.4899 34.5669 75.1124 35.1083C75.7416 35.6491 76.4749 35.8879 77.3126 35.8247C78.1967 35.758 78.8298 35.5096 79.2119 35.0796C79.5939 34.6496 79.7874 34.157 79.7923 33.6017L82.4048 33.4045C82.4545 34.0627 82.3043 34.7292 81.9541 35.4041C81.6105 36.0786 81.0659 36.6579 80.3203 37.142C79.5812 37.6257 78.6433 37.9104 77.5066 37.9963ZM88.4235 37.1521C88.0446 37.1807 87.6563 37.1733 87.2585 37.1297C86.868 37.0924 86.4989 36.9865 86.1515 36.8122C85.8102 36.6307 85.5253 36.3547 85.2967 35.9842C85.0682 35.6137 84.9301 35.1126 84.8824 34.4811L84.4466 28.7075L81.9437 28.8964L81.7857 26.8024L82.8028 26.7256C83.2615 26.691 83.5916 26.636 83.7932 26.5606C84.0009 26.4781 84.1218 26.3085 84.1559 26.0519C84.1967 25.7947 84.1955 25.3803 84.1523 24.8086L84.0251 23.1234L86.6576 22.9247L86.9211 26.4148L90.0721 26.1769L90.2302 28.2709L87.0791 28.5088L87.4547 33.4846C87.4924 33.9832 87.579 34.3778 87.7146 34.6684C87.8563 34.9519 88.1532 35.0766 88.6053 35.0425C88.818 35.0264 89.0159 34.9914 89.199 34.9375C89.3888 34.883 89.5287 34.8324 89.6188 34.7854L89.7738 36.8396C89.6444 36.8962 89.4618 36.9568 89.226 37.0213C88.9968 37.0854 88.7293 37.129 88.4235 37.1521ZM101.751 32.586C101.735 33.1822 101.532 33.7691 101.141 34.3469C100.757 34.9241 100.183 35.4187 99.4182 35.8308C98.6599 36.2357 97.719 36.4805 96.5955 36.5653C95.4587 36.6511 94.4473 36.4935 93.5613 36.0924C92.6753 35.6913 91.9618 35.0966 91.421 34.3084C90.8862 33.5131 90.5782 32.577 90.4969 31.5C90.4141 30.4031 90.5809 29.4245 90.9974 28.564C91.4204 27.7031 92.0401 27.0111 92.8564 26.4882C93.6788 25.9581 94.6484 25.6509 95.7653 25.5666C96.9087 25.4803 97.9134 25.6385 98.7795 26.0411C99.6523 26.4432 100.346 27.0427 100.861 27.8395C101.376 28.6364 101.674 29.5799 101.756 30.6701C101.783 31.0158 101.789 31.2827 101.777 31.4709L93.2111 32.1175C93.4058 32.9251 93.7864 33.5382 94.3528 33.9568C94.9187 34.3687 95.6438 34.5412 96.5279 34.4745C97.4586 34.4042 98.1213 34.1938 98.5161 33.8431C98.9169 33.4852 99.1243 33.1319 99.138 32.7832L101.751 32.586ZM95.9502 27.6185C95.1525 27.6787 94.5035 27.9383 94.0033 28.3973C93.5031 28.8562 93.2021 29.474 93.1003 30.2505L98.9636 29.8079C98.8622 29.1738 98.5608 28.6349 98.0593 28.1914C97.5574 27.7412 96.8543 27.5503 95.9502 27.6185ZM107.532 35.7298C106.654 35.796 105.831 35.6476 105.061 35.2845C104.291 34.9147 103.653 34.3345 103.145 33.5438C102.637 32.7531 102.338 31.7561 102.247 30.5529C102.159 29.3829 102.31 28.3753 102.701 27.5301C103.099 26.6845 103.65 26.0244 104.357 25.5499C105.07 25.0749 105.852 24.8053 106.702 24.741C107.347 24.6924 107.968 24.7725 108.566 24.9815C109.163 25.1904 109.692 25.5049 110.151 25.9248L109.679 19.6726L112.312 19.4739L113.488 35.0595L110.856 35.2582L110.76 33.9918C110.376 34.4821 109.908 34.8818 109.357 35.1909C108.805 35.5 108.197 35.6796 107.532 35.7298ZM107.966 33.3704C108.451 33.3338 108.891 33.1836 109.285 32.9198C109.68 32.656 109.988 32.3118 110.21 31.8873C110.438 31.4555 110.532 30.9738 110.492 30.4419L110.41 29.355C110.371 28.8365 110.204 28.3912 109.908 28.019C109.619 27.6397 109.257 27.3562 108.821 27.1684C108.392 26.9735 107.945 26.8936 107.479 26.9288C106.715 26.9865 106.083 27.2949 105.584 27.8541C105.084 28.4066 104.876 29.238 104.96 30.3481C105.043 31.4517 105.374 32.2457 105.952 32.7302C106.53 33.2147 107.201 33.4281 107.966 33.3704Z" fill="black" fill-opacity="0.49"/>
</svg>
