<svg width="50" height="50" viewBox="0 0 50 50" fill="none" xmlns="http://www.w3.org/2000/svg">
<path d="M21.2986 3.03486C22.6553 -0.27659 27.3448 -0.276598 28.7014 3.03486L33.3743 14.4408C33.7805 15.4324 34.5677 16.2195 35.5593 16.6258L46.9652 21.2986C50.2766 22.6553 50.2767 27.3448 46.9652 28.7014L35.5593 33.3743C34.5677 33.7805 33.7805 34.5677 33.3743 35.5593L28.7015 46.9652C27.3448 50.2766 22.6553 50.2767 21.2986 46.9652L16.6258 35.5593C16.2195 34.5677 15.4324 33.7805 14.4408 33.3743L3.03486 28.7015C-0.27659 27.3448 -0.276598 22.6553 3.03486 21.2986L14.4408 16.6258C15.4324 16.2195 16.2195 15.4324 16.6258 14.4408L21.2986 3.03486Z" fill="#6DC7DB"/>
</svg>
